<svg width="40" height="40" viewBox="0 0 40 40" fill="none" xmlns="http://www.w3.org/2000/svg">
<path d="M30 2.5C30.663 2.5 31.2989 2.76339 31.7678 3.23223C32.2366 3.70107 32.5 4.33696 32.5 5V37.5H36.25C36.5815 37.5 36.8995 37.6317 37.1339 37.8661C37.3683 38.1005 37.5 38.4185 37.5 38.75C37.5 39.0815 37.3683 39.3995 37.1339 39.6339C36.8995 39.8683 36.5815 40 36.25 40H3.75C3.41848 40 3.10054 39.8683 2.86612 39.6339C2.6317 39.3995 2.5 39.0815 2.5 38.75C2.5 38.4185 2.6317 38.1005 2.86612 37.8661C3.10054 37.6317 3.41848 37.5 3.75 37.5H7.5V5C7.5 4.33696 7.76339 3.70107 8.23223 3.23223C8.70107 2.76339 9.33696 2.5 10 2.5H30ZM25 25C25.663 25 26.2989 24.7366 26.7678 24.2678C27.2366 23.7989 27.5 23.163 27.5 22.5C27.5 21.837 27.2366 21.2011 26.7678 20.7322C26.2989 20.2634 25.663 20 25 20C24.337 20 23.7011 20.2634 23.2322 20.7322C22.7634 21.2011 22.5 21.837 22.5 22.5C22.5 23.163 22.7634 23.7989 23.2322 24.2678C23.7011 24.7366 24.337 25 25 25Z" fill="#2F82FF"/>
</svg>
