<svg width="31" height="31" viewBox="0 0 31 31" fill="none" xmlns="http://www.w3.org/2000/svg">
<path d="M17.583 22.8141C22.7658 22.8141 27.0283 18.6 27.0283 13.3688C27.0283 8.18596 22.8143 3.92346 17.583 3.92346C12.3518 3.92346 8.1377 8.13752 8.1377 13.3688C8.18613 18.6 12.4002 22.8141 17.583 22.8141ZM17.583 5.32815C22.0393 5.32815 25.6721 8.96096 25.6721 13.4172C25.6721 17.8735 22.0393 21.5063 17.583 21.5063C13.1268 21.5063 9.49395 17.8735 9.49395 13.4172C9.54239 8.96096 13.1752 5.32815 17.583 5.32815Z" fill="white" fill-opacity="0.5"/>
<path d="M4.98886 27.0281L11.5764 20.4891L10.5107 19.4235L3.97168 26.011L4.98886 27.0281Z" fill="white" fill-opacity="0.5"/>
</svg>
