<svg width="159" height="159" viewBox="0 0 159 159" fill="none" xmlns="http://www.w3.org/2000/svg">
<g clip-path="url(#clip0_18_89)">
<path d="M126.798 78.6145L116.203 49.5057C115.841 48.5107 115.101 47.7042 114.144 47.2581L83.4643 32.9518C79.4759 31.0919 74.739 32.816 72.8792 36.8044L42.5834 101.774C40.7236 105.762 42.4476 110.499 46.436 112.359L93.3585 134.239C97.3469 136.099 102.084 134.375 103.944 130.387L126.665 81.6595C127.111 80.7031 127.16 79.6095 126.798 78.6145ZM83.7269 107.777L65.6798 99.3613C63.6874 98.4322 62.8244 96.0611 63.7535 94.0687C64.6826 92.0763 67.0536 91.2134 69.046 92.1424L87.0931 100.558C89.0855 101.487 89.9485 103.858 89.0195 105.85C88.0904 107.843 85.7193 108.706 83.7269 107.777ZM97.6782 96.7053L72.4122 84.9236C70.4198 83.9945 69.5568 81.6235 70.4859 79.6311C71.415 77.6387 73.786 76.7757 75.7784 77.7047L101.044 89.4864C103.037 90.4155 103.9 92.7866 102.971 94.779C102.042 96.7714 99.6706 97.6344 97.6782 96.7053ZM104.167 73.3656C102.175 72.4366 101.312 70.0655 102.241 68.0731L109.135 53.2889L118.952 80.2596L104.167 73.3656Z" fill="#2F82FF"/>
<path d="M35.3645 98.4078L65.6604 33.4382C66.8924 30.7961 68.7971 28.7093 71.0334 27.1552L65.4171 24.5362C61.4287 22.6764 56.6919 24.4005 54.8321 28.3889L24.5363 93.3585C22.6764 97.3469 24.4005 102.084 28.3889 103.944L34.0052 106.562C33.7583 103.85 34.1325 101.05 35.3645 98.4078Z" fill="#2F82FF"/>
</g>
<defs>
<clipPath id="clip0_18_89">
<rect width="119.477" height="119.477" fill="white" transform="translate(50.493) rotate(25)"/>
</clipPath>
</defs>
</svg>
