<svg width="65" height="88" viewBox="0 0 65 88" fill="none" xmlns="http://www.w3.org/2000/svg">
<path d="M62.3553 55.0546C59.7818 53.0076 56.0348 53.4364 53.9859 56.0122L53.054 55.2709L56.0219 51.5398C58.0707 48.9641 57.6457 45.2166 55.0722 43.1696C52.4988 41.1226 48.7518 41.5514 46.7029 44.1272L43.735 47.8583L42.8031 47.117L62.0943 22.8647C64.553 19.7737 64.0428 15.2768 60.9547 12.8204C57.8666 10.3641 53.3702 10.8785 50.9115 13.9695L31.6204 38.2218L30.0394 36.9643L38.3827 9.80026C39.542 6.02498 37.4229 2.02756 33.6498 0.871701C29.8766 -0.284367 25.8782 1.83889 24.7189 5.61396L15.7746 34.735L9.84622 34.7543C6.9132 34.7639 4.42165 36.9078 3.97396 39.8076L1.04161 58.7967C0.881291 59.8347 0.998154 60.8964 1.38034 61.8742C1.76253 62.852 2.39647 63.7111 3.21789 64.3645L31.1749 86.6025C33.3371 88.3224 36.3997 88.3275 38.5706 86.6147L54.9117 73.7224C55.2725 73.4378 55.5992 73.1124 55.8852 72.7527L63.3049 63.4249C65.3538 60.8491 64.9287 57.1016 62.3553 55.0546Z" fill="#2F82FF"/>
</svg>
