<svg width="56" height="33" viewBox="0 0 56 33" fill="none" xmlns="http://www.w3.org/2000/svg">
<path fill-rule="evenodd" clip-rule="evenodd" d="M54.6817 2.29167C55.0971 0.999167 54.6817 0.0595829 52.8442 0.0595829H46.7344C45.1932 0.0595829 44.4816 0.882291 44.0662 1.76229C44.0662 1.76229 40.9232 9.27896 36.5342 14.1522C35.1109 15.5616 34.4587 16.0314 33.6875 16.0314C33.2722 16.0314 32.7379 15.5616 32.7379 14.2702V2.23094C32.7379 0.704688 32.2642 0 30.9587 0H21.35C20.4004 0 19.8077 0.704688 19.8077 1.40938C19.8077 2.87719 22.0022 3.2301 22.239 7.34021V16.2708C22.239 18.2084 21.889 18.5625 21.112 18.5625C19.0365 18.5625 13.9954 10.9874 10.9713 2.35583C10.3833 0.64625 9.78601 0 8.24368 0H2.0755C0.296334 0 0 0.821563 0 1.70271C0 3.28854 2.0755 11.2739 9.66701 21.843C14.7082 29.0618 21.8844 32.9416 28.3489 32.9416C32.2642 32.9416 32.7379 32.0604 32.7379 30.5926V25.1316C32.7379 23.3704 33.0937 23.0771 34.3397 23.0771C35.2287 23.0771 36.8306 23.5457 40.4484 27.0107C44.5994 31.1208 45.3111 33 47.6246 33H53.7332C55.5124 33 56.3431 32.1189 55.8682 30.4161C55.3351 28.7134 53.3179 26.2476 50.7081 23.312C49.2847 21.6689 47.1497 19.8481 46.4976 18.967C45.6086 17.7925 45.8454 17.3227 46.4976 16.2663C46.4381 16.2663 53.9117 5.81396 54.6817 2.28708" fill="#8B8B8B"/>
</svg>
