<svg width="267" height="255" viewBox="0 0 267 255" fill="none" xmlns="http://www.w3.org/2000/svg">
<path d="M148.693 151.681C143.954 154.642 140.2 158.941 137.905 164.036C135.61 169.131 134.877 174.792 135.8 180.303C136.722 185.814 139.258 190.928 143.086 194.998C146.915 199.068 151.864 201.911 157.309 203.168C162.753 204.425 168.448 204.039 173.674 202.059C178.899 200.08 183.42 196.595 186.665 192.046C189.909 187.497 191.732 182.088 191.903 176.503C192.074 170.917 190.584 165.407 187.623 160.668C183.649 154.318 177.317 149.805 170.018 148.12C162.718 146.434 155.049 147.715 148.693 151.681Z" fill="#2F82FF"/>
<path d="M81.3085 156.666C80.4759 160.319 81.1283 164.152 83.1221 167.324C85.116 170.495 88.288 172.745 91.9404 173.577C95.5928 174.41 99.4264 173.758 102.598 171.764C105.769 169.77 108.019 166.598 108.851 162.945C112.395 148.526 121.422 136.058 134.014 128.19C146.606 120.322 161.77 117.674 176.283 120.809C178.095 121.24 179.975 121.305 181.812 121C183.65 120.696 185.408 120.028 186.985 119.036C189.35 117.557 191.225 115.411 192.372 112.867C193.52 110.324 193.888 107.498 193.432 104.746C192.975 101.994 191.713 99.4381 189.806 97.4018C187.899 95.3654 185.431 93.9395 182.715 93.3038C138.42 82.9155 91.3907 112.302 81.3085 156.666Z" fill="#2F82FF"/>
<path d="M195.383 38.6019C177.365 34.2362 158.657 33.5125 140.357 36.4733C122.056 39.434 104.53 46.0196 88.8086 55.8436C73.0869 65.6677 59.4852 78.5324 48.8015 93.6832C38.1179 108.834 30.5674 125.966 26.5929 144.073C25.7704 147.728 26.4333 151.56 28.436 154.726C30.4386 157.892 33.6169 160.132 37.2716 160.955C40.9262 161.777 44.758 161.114 47.9239 159.112C51.0897 157.109 53.3304 153.931 54.1529 150.276C67.4592 91.0792 129.837 52.1012 188.876 66.0917C192.521 66.9545 196.36 66.3339 199.548 64.3663C202.736 62.3988 205.011 59.2455 205.874 55.6001C206.737 51.9547 206.116 48.1159 204.149 44.9281C202.181 41.7403 199.028 39.4647 195.383 38.6019Z" fill="#2F82FF"/>
</svg>
