<svg width="15" height="16" viewBox="0 0 15 16" fill="none" xmlns="http://www.w3.org/2000/svg">
<path fill-rule="evenodd" clip-rule="evenodd" d="M0.146493 13.5815C-0.0487687 13.7767 -0.0487687 14.0933 0.146493 14.2886C0.341756 14.4838 0.658338 14.4838 0.8536 14.2886L6.86398 8.2782L13.5815 14.9957C13.7767 15.191 14.0933 15.191 14.2886 14.9957C14.4838 14.8004 14.4838 14.4838 14.2886 14.2886L7.57109 7.57109L14.2886 0.853554C14.4839 0.658291 14.4839 0.341709 14.2886 0.146447C14.0934 -0.0488154 13.7768 -0.0488157 13.5815 0.146446L6.86398 6.86399L0.853554 0.853555C0.658291 0.658293 0.341709 0.658293 0.146447 0.853555C-0.0488154 1.04882 -0.0488157 1.3654 0.146446 1.56066L6.15688 7.57109L0.146493 13.5815Z" fill="#2F2F2F" fill-opacity="0.7"/>
</svg>
