<svg width="41" height="41" viewBox="0 0 41 41" fill="none" xmlns="http://www.w3.org/2000/svg">
<path d="M26.6372 5.17145C25.0789 3.489 22.9024 2.5625 20.5 2.5625C18.0849 2.5625 15.9011 3.4834 14.35 5.15543C12.7821 6.84588 12.0181 9.14332 12.1975 11.6241C12.5531 16.5185 16.2775 20.5 20.5 20.5C24.7225 20.5 28.4406 16.5193 28.8017 11.6257C28.9835 9.16734 28.2147 6.87471 26.6372 5.17145Z" fill="#2F82FF"/>
<path d="M34.5937 38.4375H6.40622C6.03727 38.4423 5.67189 38.3648 5.33667 38.2106C5.00144 38.0564 4.7048 37.8295 4.46833 37.5462C3.94782 36.924 3.73802 36.0744 3.89337 35.2152C4.56923 31.4659 6.67849 28.3164 9.99372 26.1055C12.939 24.1428 16.6698 23.0625 20.5 23.0625C24.3301 23.0625 28.0609 24.1436 31.0062 26.1055C34.3215 28.3156 36.4307 31.4651 37.1066 35.2144C37.2619 36.0736 37.0521 36.9232 36.5316 37.5454C36.2952 37.8288 35.9986 38.0559 35.6634 38.2103C35.3282 38.3646 34.9627 38.4422 34.5937 38.4375Z" fill="#2F82FF"/>
</svg>
