<svg width="248" height="48" viewBox="0 0 248 48" fill="none" xmlns="http://www.w3.org/2000/svg">
<path d="M245.777 15.7591C247.577 15.0538 248.464 13.0231 247.759 11.2233C247.054 9.4236 245.023 8.53638 243.223 9.24168L245.777 15.7591ZM0.225659 31.7634C-0.457143 33.5718 0.455322 35.5913 2.26371 36.2741L31.733 47.401C33.5414 48.0838 35.5609 47.1714 36.2437 45.363C36.9265 43.5546 36.0141 41.5351 34.2057 40.8523L8.01072 30.9617L17.9013 4.76674C18.5841 2.95835 17.6716 0.938848 15.8633 0.256045C14.0549 -0.426757 12.0354 0.485708 11.3526 2.29409L0.225659 31.7634ZM243.223 9.24168C215.839 19.973 196.852 22.3007 181.474 21.0047C165.949 19.6964 153.959 14.7307 139.878 10.2288C125.854 5.74479 110.353 1.97645 88.7546 3.73805C67.2443 5.49247 39.9029 12.7113 2.05891 29.8102L4.94115 36.1893C42.3472 19.2883 68.8807 12.3823 89.3236 10.7149C109.679 9.05468 124.208 12.5677 137.747 16.8963C151.229 21.2069 164.333 26.585 180.886 27.98C197.585 29.3872 217.661 26.7776 245.777 15.7591L243.223 9.24168Z" fill="#2F82FF"/>
</svg>
