<svg width="31" height="31" viewBox="0 0 31 31" fill="none" xmlns="http://www.w3.org/2000/svg">
<path d="M17.5828 22.8141C22.7656 22.8141 27.0281 18.6 27.0281 13.3688C27.0281 8.18596 22.8141 3.92346 17.5828 3.92346C12.3516 3.92346 8.1375 8.13752 8.1375 13.3688C8.18593 18.6 12.4 22.8141 17.5828 22.8141ZM17.5828 5.32815C22.0391 5.32815 25.6719 8.96096 25.6719 13.4172C25.6719 17.8735 22.0391 21.5063 17.5828 21.5063C13.1266 21.5063 9.49375 17.8735 9.49375 13.4172C9.54219 8.96096 13.175 5.32815 17.5828 5.32815Z" fill="#2F2F2F" fill-opacity="0.5"/>
<path d="M4.98905 27.0281L11.5766 20.4891L10.5109 19.4235L3.97187 26.011L4.98905 27.0281Z" fill="#2F2F2F" fill-opacity="0.5"/>
</svg>
