<svg width="35" height="35" viewBox="0 0 35 35" fill="none" xmlns="http://www.w3.org/2000/svg">
<g clip-path="url(#clip0_390_827)">
<path d="M34.9453 26.4547L33.356 33.3454C33.1327 34.3195 32.2766 35.001 31.2737 35.001C14.0273 34.9997 0 20.9723 0 3.72526C0 2.72311 0.681475 1.86588 1.65566 1.64371L8.54629 0.0543575C9.54981 -0.178201 10.5752 0.342697 10.9922 1.29303L14.1723 8.71002C14.544 9.58365 14.2933 10.6015 13.5584 11.2017L9.87793 14.1569C12.2008 18.8887 16.048 22.736 20.7813 25.0602L23.7945 21.3825C24.3884 20.6456 25.414 20.3906 26.2876 20.769L33.7046 23.9484C34.5967 24.4176 35.1777 25.4567 34.9453 26.4547Z" fill="#2F82FF"/>
</g>
<defs>
<clipPath id="clip0_390_827">
<rect width="35" height="35" fill="white"/>
</clipPath>
</defs>
</svg>
